<svg xmlns="http://www.w3.org/2000/svg" version="1.1" xmlns:xlink="http://www.w3.org/1999/xlink" xmlns:svgjs="http://svgjs.dev/svgjs" width="1500" height="1500" viewBox="0 0 1500 1500"><rect width="1500" height="1500" fill="#ffffff"></rect><g transform="matrix(0.6666666666666666,0,0,0.6666666666666666,249.40267836370094,402.5494623655915)"><svg viewBox="0 0 358 248" data-background-color="#ede1d1" preserveAspectRatio="xMidYMid meet" height="1039" width="1500" xmlns="http://www.w3.org/2000/svg" xmlns:xlink="http://www.w3.org/1999/xlink"><g id="tight-bounds" transform="matrix(1,0,0,1,0.2138411457950724,0.4000000000000057)"><svg viewBox="0 0 357.57231770840986 247.2" height="247.2" width="357.57231770840986"><g><svg viewBox="0 0 397.4975999999999 274.8014928832645" height="247.2" width="357.57231770840986"><g><rect width="397.4975999999999" height="5.944733629439999" x="0" y="153.49089322390657" fill="#000000" opacity="1" stroke-width="0" stroke="transparent" fill-opacity="1" class="rect-yte-0" data-fill-palette-color="primary" rx="1%" id="yte-0" data-palette-color="#6a704c"></rect></g><g transform="matrix(1,0,0,1,0.9887999999999693,174.99775677334657)"><svg viewBox="0 0 395.52 99.80373610991792" height="99.80373610991792" width="395.52"><g id="textblocktransform"><svg viewBox="0 0 395.52 99.80373610991792" height="99.80373610991792" width="395.52" id="textblock"><g><svg viewBox="0 0 395.52 65.91999999999999" height="65.91999999999999" width="395.52"><g transform="matrix(1,0,0,1,0,0)"><svg width="395.52" viewBox="3 -25.49 155.85 25.979999999999997" height="65.91999999999999" data-palette-color="#6a704c"><path d="M32.4 0L29.39 0 29.39-18.31Q29.39-19.21 29.05-20.01 28.71-20.8 28.13-21.39 27.54-21.97 26.75-22.31 25.95-22.66 25.05-22.66L25.05-22.66 23.56-22.66Q22.66-22.66 21.86-22.31 21.07-21.97 20.47-21.39 19.87-20.8 19.53-20.01 19.19-19.21 19.19-18.31L19.19-18.31 19.19 0 16.21 0 16.21-18.31Q16.21-19.21 15.87-20.01 15.53-20.8 14.93-21.39 14.33-21.97 13.54-22.31 12.74-22.66 11.84-22.66L11.84-22.66 10.35-22.66Q9.45-22.66 8.65-22.31 7.86-21.97 7.28-21.39 6.69-20.8 6.35-20.01 6.01-19.21 6.01-18.31L6.01-18.31 6.01 0 3 0 3-25 4-25 5.64-22.46Q6.67-23.85 8.22-24.67 9.77-25.49 11.6-25.49L11.6-25.49 11.84-25.49Q13.96-25.49 15.67-24.44 17.38-23.39 18.31-21.66L18.31-21.66Q18.77-22.51 19.46-23.22 20.14-23.93 20.97-24.43 21.8-24.93 22.78-25.21 23.75-25.49 24.8-25.49L24.8-25.49 25.05-25.49Q26.56-25.49 27.91-24.91 29.25-24.34 30.25-23.34 31.25-22.34 31.82-21 32.4-19.65 32.4-18.14L32.4-18.14 32.4 0ZM55.1 0L54.1 0 52.44-2.49Q51.41-1.15 49.88-0.33 48.34 0.49 46.51 0.49L46.51 0.49 45.75 0.49Q44.24 0.49 42.89-0.09 41.55-0.66 40.55-1.66 39.55-2.66 38.97-4 38.4-5.35 38.4-6.86L38.4-6.86 38.4-7.1Q38.4-8.62 38.97-9.96 39.55-11.3 40.55-12.3 41.55-13.31 42.89-13.88 44.24-14.45 45.75-14.45L45.75-14.45 52.1-14.45 52.1-18.31Q52.1-19.21 51.76-20.01 51.41-20.8 50.83-21.39 50.24-21.97 49.45-22.31 48.65-22.66 47.75-22.66L47.75-22.66 45.99-22.66Q45.09-22.66 44.3-22.31 43.5-21.97 42.92-21.39 42.33-20.8 41.99-20.01 41.65-19.21 41.65-18.31L41.65-18.31 41.65-17.41 38.64-17.9 38.64-18.14Q38.64-19.65 39.22-21 39.79-22.34 40.79-23.34 41.79-24.34 43.14-24.91 44.48-25.49 45.99-25.49L45.99-25.49 47.75-25.49Q49.27-25.49 50.61-24.91 51.95-24.34 52.95-23.34 53.95-22.34 54.53-21 55.1-19.65 55.1-18.14L55.1-18.14 55.1 0ZM52.1-6.69L52.1-12.11 45.75-12.11Q44.85-12.11 44.05-11.77 43.26-11.43 42.67-10.83 42.09-10.23 41.75-9.44 41.4-8.64 41.4-7.74L41.4-7.74 41.4-6.69Q41.4-5.79 41.75-4.99 42.09-4.2 42.67-3.61 43.26-3.03 44.05-2.69 44.85-2.34 45.75-2.34L45.75-2.34 47.75-2.34Q48.65-2.34 49.45-2.69 50.24-3.03 50.83-3.61 51.41-4.2 51.76-4.99 52.1-5.79 52.1-6.69L52.1-6.69ZM77.8 0L76.8 0 75.14-2.54Q74.12-1.15 72.58-0.33 71.04 0.49 69.21 0.49L69.21 0.49 68.45 0.49Q66.94 0.49 65.6-0.09 64.25-0.66 63.25-1.66 62.25-2.66 61.68-4 61.1-5.35 61.1-6.86L61.1-6.86 61.1-25 64.11-25 64.11-6.69Q64.11-5.79 64.45-4.99 64.79-4.2 65.38-3.61 65.96-3.03 66.76-2.69 67.55-2.34 68.45-2.34L68.45-2.34 70.45-2.34Q71.36-2.34 72.15-2.69 72.94-3.03 73.53-3.61 74.12-4.2 74.46-4.99 74.8-5.79 74.8-6.69L74.8-6.69 74.8-25 77.8-25 77.8 0ZM100.99-6.35L100.99-6.35Q100.99-4.83 100.38-3.58 99.77-2.32 98.72-1.42 97.67-0.51 96.29-0.01 94.91 0.49 93.4 0.49L93.4 0.49 91.4 0.49Q89.89 0.49 88.51-0.09 87.13-0.66 86.09-1.66 85.05-2.66 84.43-4 83.81-5.35 83.81-6.86L83.81-6.86 83.81-7.86 86.81-8.35 86.81-6.69Q86.81-5.79 87.19-4.99 87.57-4.2 88.2-3.61 88.84-3.03 89.67-2.69 90.5-2.34 91.4-2.34L91.4-2.34 93.4-2.34Q94.3-2.34 95.13-2.61 95.96-2.88 96.61-3.38 97.26-3.88 97.64-4.59 98.01-5.3 98.01-6.2L98.01-6.2Q98.01-7.54 97.43-8.4 96.84-9.25 95.88-9.83 94.91-10.4 93.68-10.78 92.45-11.16 91.15-11.54 89.86-11.91 88.63-12.4 87.39-12.89 86.43-13.68 85.47-14.48 84.88-15.67 84.29-16.87 84.29-18.65L84.29-18.65Q84.29-20.17 84.88-21.42 85.47-22.68 86.47-23.58 87.47-24.49 88.8-24.99 90.13-25.49 91.64-25.49L91.64-25.49 93.4-25.49Q94.91-25.49 96.26-24.91 97.6-24.34 98.6-23.34 99.6-22.34 100.18-21 100.75-19.65 100.75-18.14L100.75-18.14 100.75-18.04 97.75-17.55 97.75-18.31Q97.75-19.21 97.4-20.01 97.06-20.8 96.48-21.39 95.89-21.97 95.1-22.31 94.3-22.66 93.4-22.66L93.4-22.66 91.64-22.66Q90.74-22.66 89.95-22.39 89.15-22.12 88.57-21.62 87.98-21.12 87.64-20.41 87.3-19.7 87.3-18.8L87.3-18.8Q87.3-17.5 87.88-16.69 88.47-15.87 89.43-15.31 90.4-14.75 91.63-14.37 92.86-13.99 94.15-13.59 95.43-13.18 96.66-12.67 97.89-12.16 98.86-11.35 99.82-10.55 100.41-9.34 100.99-8.13 100.99-6.35ZM123.45 0L122.45 0 120.79-2.49Q119.77-1.15 118.23-0.33 116.69 0.49 114.86 0.49L114.86 0.49 114.1 0.49Q112.59 0.49 111.24-0.09 109.9-0.66 108.9-1.66 107.9-2.66 107.33-4 106.75-5.35 106.75-6.86L106.75-6.86 106.75-7.1Q106.75-8.62 107.33-9.96 107.9-11.3 108.9-12.3 109.9-13.31 111.24-13.88 112.59-14.45 114.1-14.45L114.1-14.45 120.45-14.45 120.45-18.31Q120.45-19.21 120.11-20.01 119.77-20.8 119.18-21.39 118.59-21.97 117.8-22.31 117.01-22.66 116.1-22.66L116.1-22.66 114.35-22.66Q113.44-22.66 112.65-22.31 111.86-21.97 111.27-21.39 110.68-20.8 110.34-20.01 110-19.21 110-18.31L110-18.31 110-17.41 107-17.9 107-18.14Q107-19.65 107.57-21 108.14-22.34 109.15-23.34 110.15-24.34 111.49-24.91 112.83-25.49 114.35-25.49L114.35-25.49 116.1-25.49Q117.62-25.49 118.96-24.91 120.3-24.34 121.3-23.34 122.3-22.34 122.88-21 123.45-19.65 123.45-18.14L123.45-18.14 123.45 0ZM120.45-6.69L120.45-12.11 114.1-12.11Q113.2-12.11 112.4-11.77 111.61-11.43 111.03-10.83 110.44-10.23 110.1-9.44 109.76-8.64 109.76-7.74L109.76-7.74 109.76-6.69Q109.76-5.79 110.1-4.99 110.44-4.2 111.03-3.61 111.61-3.03 112.4-2.69 113.2-2.34 114.1-2.34L114.1-2.34 116.1-2.34Q117.01-2.34 117.8-2.69 118.59-3.03 119.18-3.61 119.77-4.2 120.11-4.99 120.45-5.79 120.45-6.69L120.45-6.69ZM158.85 0L155.85 0 155.85-18.31Q155.85-19.21 155.51-20.01 155.16-20.8 154.58-21.39 153.99-21.97 153.2-22.31 152.4-22.66 151.5-22.66L151.5-22.66 150.01-22.66Q149.11-22.66 148.32-22.31 147.52-21.97 146.92-21.39 146.33-20.8 145.98-20.01 145.64-19.21 145.64-18.31L145.64-18.31 145.64 0 142.66 0 142.66-18.31Q142.66-19.21 142.32-20.01 141.98-20.8 141.38-21.39 140.78-21.97 139.99-22.31 139.2-22.66 138.29-22.66L138.29-22.66 136.8-22.66Q135.9-22.66 135.11-22.31 134.31-21.97 133.73-21.39 133.14-20.8 132.8-20.01 132.46-19.21 132.46-18.31L132.46-18.31 132.46 0 129.46 0 129.46-25 130.46-25 132.09-22.46Q133.12-23.85 134.67-24.67 136.22-25.49 138.05-25.49L138.05-25.49 138.29-25.49Q140.42-25.49 142.13-24.44 143.84-23.39 144.76-21.66L144.76-21.66Q145.23-22.51 145.91-23.22 146.59-23.93 147.42-24.43 148.25-24.93 149.23-25.21 150.21-25.49 151.26-25.49L151.26-25.49 151.5-25.49Q153.01-25.49 154.36-24.91 155.7-24.34 156.7-23.34 157.7-22.34 158.28-21 158.85-19.65 158.85-18.14L158.85-18.14 158.85 0Z" opacity="1" transform="matrix(1,0,0,1,0,0)" fill="#000000" class="wordmark-text-0" data-fill-palette-color="primary" id="text-0"></path></svg></g></svg></g><g transform="matrix(1,0,0,1,75.54432,81.48212991999998)"><svg viewBox="0 0 244.43135999999998 18.321606189917937" height="18.321606189917937" width="244.43135999999998"><g transform="matrix(1,0,0,1,0,0)"><svg width="244.43135999999998" viewBox="1 -38.65 682.33 51.15" height="18.321606189917937" data-palette-color="#6a704c"><path d="M10.65-10.35Q10.65-5.1 11.2-3.38 11.75-1.65 13.23-1.65 14.7-1.65 15.78-2.95 16.85-4.25 16.85-6.8L16.85-6.8 16.85-17.7Q16.85-19.85 16-21.35 15.15-22.85 13.5-22.85 11.85-22.85 11.25-20.65 10.65-18.45 10.65-12.95L10.65-12.95 10.65-10.35ZM28.6 0L17.5 0 16.95-3.5Q15.25 0.5 10.05 0.5L10.05 0.5Q5.75 0.5 3.38-2.6 1-5.7 1-11.85L1-11.85Q1-24.3 10.9-24.3L10.9-24.3Q15.3-24.3 16.7-21.85L16.7-21.85 16.7-36.6 13.65-36.6 13.65-37.5 26.15-37.5 26.15-0.9 28.6-0.9 28.6 0ZM41.9-11.75L41.9-11.75 43.35-11.75 43.35-15.6Q43.35-20.35 42.82-21.98 42.3-23.6 40.8-23.6L40.8-23.6Q39.9-23.6 39.17-23.13 38.45-22.65 38.45-21.83 38.45-21 38.75-20.15L38.75-20.15 40-20.15Q40.4-19.1 40.4-17.63 40.4-16.15 39.15-15.08 37.9-14 36-14L36-14Q31.7-14 31.7-18.15L31.7-18.15Q31.7-24.3 42.15-24.3L42.15-24.3Q48.1-24.3 50.37-22.28 52.65-20.25 52.65-14.85L52.65-14.85 52.65-4.7Q52.65-2.1 54.1-2.1L54.1-2.1Q55.8-2.1 56.1-7.25L56.1-7.25 56.85-7.2Q56.65-2.8 55.2-1.15 53.75 0.5 50.45 0.5L50.45 0.5Q44.45 0.5 43.55-3.2L43.55-3.2Q42.9-1.3 41.6-0.4 40.3 0.5 37.8 0.5L37.8 0.5Q30.4 0.5 30.4-5.55L30.4-5.55Q30.4-9.1 33.22-10.43 36.05-11.75 41.9-11.75ZM39.9-5.6Q39.9-3 40.17-2.25 40.45-1.5 41.22-1.5 42-1.5 42.67-2.78 43.35-4.05 43.35-6.3L43.35-6.3 43.35-10.95 43-10.95Q39.9-10.95 39.9-6.4L39.9-6.4 39.9-5.6ZM64.7-27.25Q62.05-27.25 60.92-28.6 59.8-29.95 59.8-31.95 59.8-33.95 61.02-35.25 62.25-36.55 64.75-36.55 67.25-36.55 68.55-35.38 69.84-34.2 69.84-32.02 69.84-29.85 68.59-28.55 67.34-27.25 64.7-27.25ZM57.15-22.9L57.15-23.8 69.4-23.8 69.4-0.9 72.2-0.9 72.2 0 57.35 0 57.35-0.9 60.1-0.9 60.1-22.9 57.15-22.9ZM72.99-36.6L72.99-37.5 85.24-37.5 85.24-0.9 88.04-0.9 88.04 0 73.19 0 73.19-0.9 75.94-0.9 75.94-36.6 72.99-36.6ZM90.04-22.9L87.99-22.9 87.99-23.8 102.49-23.8 102.49-22.9 99.79-22.9 105.24-6.3 111.04-22.9 107.69-22.9 107.69-23.8 114.74-23.8 114.74-22.9 112.24-22.9 102.89 4.05Q101.24 8.75 99.19 10.63 97.14 12.5 94.19 12.5 91.24 12.5 89.54 11.15 87.84 9.8 87.84 7.7 87.84 5.6 88.94 4.5 90.04 3.4 91.84 3.4L91.84 3.4Q95.99 3.4 95.99 6.85L95.99 6.85Q95.99 7.6 95.69 8.65L95.69 8.65 93.94 8.65Q93.54 9.8 93.84 10.55 94.14 11.3 95.19 11.3L95.19 11.3Q97.24 11.3 98.84 9.28 100.44 7.25 101.89 3.1L101.89 3.1 102.99 0 98.59 0 90.04-22.9ZM142.79-22.9L140.94-22.9 140.94-23.8 153.84-23.8 153.84-22.9 151.79-22.9 156.29-6.05 160.74-22.9 157.29-22.9 157.29-23.8 164.04-23.8 164.04-22.9 161.94-22.9 155.94 0 149.09 0 144.74-15.35 140.03 0 133.34 0 125.94-22.9 123.69-22.9 123.69-23.8 138.84-23.8 138.84-22.9 135.84-22.9 140.44-5.9 144.04-17.6 142.79-22.9ZM176.93 0.5Q170.48 0.5 167.26-2.83 164.03-6.15 164.03-12.08 164.03-18 167.66-21.15 171.28-24.3 176.88-24.3L176.88-24.3Q188.23-24.3 187.78-12.9L187.78-12.9 173.68-12.9 173.68-10.95Q173.68-6.05 174.93-3.55 176.18-1.05 179.28-1.05L179.28-1.05Q185.08-1.05 186.88-7.25L186.88-7.25 187.78-7.1Q186.83-3.5 184.36-1.5 181.88 0.5 176.93 0.5L176.93 0.5ZM173.73-16.35L173.73-13.9 178.88-13.9 178.88-16.35Q178.88-20.4 178.41-21.88 177.93-23.35 176.51-23.35 175.08-23.35 174.41-21.78 173.73-20.2 173.73-16.35L173.73-16.35ZM201.58-11.75L201.58-11.75 203.03-11.75 203.03-15.6Q203.03-20.35 202.51-21.98 201.98-23.6 200.48-23.6L200.48-23.6Q199.58-23.6 198.86-23.13 198.13-22.65 198.13-21.83 198.13-21 198.43-20.15L198.43-20.15 199.68-20.15Q200.08-19.1 200.08-17.63 200.08-16.15 198.83-15.08 197.58-14 195.68-14L195.68-14Q191.38-14 191.38-18.15L191.38-18.15Q191.38-24.3 201.83-24.3L201.83-24.3Q207.78-24.3 210.06-22.28 212.33-20.25 212.33-14.85L212.33-14.85 212.33-4.7Q212.33-2.1 213.78-2.1L213.78-2.1Q215.48-2.1 215.78-7.25L215.78-7.25 216.53-7.2Q216.33-2.8 214.88-1.15 213.43 0.5 210.13 0.5L210.13 0.5Q204.13 0.5 203.23-3.2L203.23-3.2Q202.58-1.3 201.28-0.4 199.98 0.5 197.48 0.5L197.48 0.5Q190.08 0.5 190.08-5.55L190.08-5.55Q190.08-9.1 192.91-10.43 195.73-11.75 201.58-11.75ZM199.58-5.6Q199.58-3 199.86-2.25 200.13-1.5 200.91-1.5 201.68-1.5 202.36-2.78 203.03-4.05 203.03-6.3L203.03-6.3 203.03-10.95 202.68-10.95Q199.58-10.95 199.58-6.4L199.58-6.4 199.58-5.6ZM218.78-7.15L218.78-7.15 218.78-22.9 216.03-22.9 216.03-23.8 218.78-23.8 218.78-30.25 228.08-32.55 228.08-23.8 234.58-23.8 234.58-22.9 228.08-22.9 228.08-6.05Q228.08-3.7 228.55-2.6 229.03-1.5 230.53-1.5 232.03-1.5 233.15-3 234.28-4.5 234.63-7.1L234.63-7.1 235.48-7Q235.08-3.55 233.28-1.53 231.48 0.5 227.33 0.5 223.18 0.5 220.98-1.15 218.78-2.8 218.78-7.15ZM235.98-36.6L235.98-37.5 248.03-37.5 248.03-19.2Q248.83-21.5 250.48-22.9 252.13-24.3 255.48-24.3L255.48-24.3Q263.23-24.3 263.23-15.95L263.23-15.95 263.23-0.9 266.03-0.9 266.03 0 251.88 0 251.88-0.9 253.93-0.9 253.93-17.15Q253.93-20.15 253.53-21.03 253.13-21.9 252.08-21.9L252.08-21.9Q250.48-21.9 249.25-19.8 248.03-17.7 248.03-14.7L248.03-14.7 248.03-0.9 250.18-0.9 250.18 0 235.98 0 235.98-0.9 238.73-0.9 238.73-36.6 235.98-36.6ZM279.92 0.5Q273.47 0.5 270.25-2.83 267.02-6.15 267.02-12.08 267.02-18 270.65-21.15 274.27-24.3 279.87-24.3L279.87-24.3Q291.22-24.3 290.77-12.9L290.77-12.9 276.67-12.9 276.67-10.95Q276.67-6.05 277.92-3.55 279.17-1.05 282.27-1.05L282.27-1.05Q288.07-1.05 289.87-7.25L289.87-7.25 290.77-7.1Q289.82-3.5 287.35-1.5 284.87 0.5 279.92 0.5L279.92 0.5ZM276.72-16.35L276.72-13.9 281.87-13.9 281.87-16.35Q281.87-20.4 281.4-21.88 280.92-23.35 279.5-23.35 278.07-23.35 277.4-21.78 276.72-20.2 276.72-16.35L276.72-16.35ZM309.27-22.4L309.27-22.4Q307.42-22.4 306.02-20 304.62-17.6 304.62-14.3L304.62-14.3 304.62-0.9 308.17-0.9 308.17 0 292.57 0 292.57-0.9 295.32-0.9 295.32-22.9 292.57-22.9 292.57-23.8 304.62-23.8 304.62-19Q305.27-21.55 307.12-22.93 308.97-24.3 311.32-24.3 313.67-24.3 315.15-22.98 316.62-21.65 316.62-19.23 316.62-16.8 315.52-15.5 314.42-14.2 312.15-14.2 309.87-14.2 308.8-15.7 307.72-17.2 308.52-19.85L308.52-19.85 310.32-19.85Q311.57-22.4 309.27-22.4ZM341.47-37.8L341.47-37.8Q339.57-37.8 338.97-36.38 338.37-34.95 338.37-31.8L338.37-31.8 338.37-23.8 344.97-23.8 344.97-22.9 338.37-22.9 338.37-0.9 344.47-0.9 344.47 0 326.32 0 326.32-0.9 329.07-0.9 329.07-22.9 326.17-22.9 326.17-23.8 329.07-23.8 329.07-24Q329.07-31.2 331.82-34.93 334.57-38.65 341.02-38.65L341.02-38.65Q345.27-38.65 347.12-36.98 348.97-35.3 348.97-33.1 348.97-30.9 347.82-29.8 346.67-28.7 344.77-28.7 342.87-28.7 341.84-29.68 340.82-30.65 340.82-31.93 340.82-33.2 341.12-34.4L341.12-34.4 343.02-34.4Q344.02-37.8 341.47-37.8ZM360.61-9.85L360.61-9.85 360.61-14.1Q360.61-18.95 360.09-21.18 359.56-23.4 357.66-23.4L357.66-23.4Q356.56-23.4 355.89-22.78 355.21-22.15 354.91-20.7L354.91-20.7Q354.46-18.45 354.46-13.85L354.46-13.85 354.46-9.95Q354.46-4.5 354.79-3.4 355.11-2.3 355.46-1.6L355.46-1.6Q356.01-0.4 357.61-0.4L357.61-0.4Q359.56-0.4 360.16-2.65L360.16-2.65Q360.61-4.25 360.61-9.85ZM357.51 0.5Q351.26 0.5 348.06-2.7 344.86-5.9 344.86-11.88 344.86-17.85 348.29-21.08 351.71-24.3 357.91-24.3 364.11-24.3 367.16-21.33 370.21-18.35 370.21-12.25L370.21-12.25Q370.21 0.5 357.51 0.5L357.51 0.5ZM388.31-22.4L388.31-22.4Q386.46-22.4 385.06-20 383.66-17.6 383.66-14.3L383.66-14.3 383.66-0.9 387.21-0.9 387.21 0 371.61 0 371.61-0.9 374.36-0.9 374.36-22.9 371.61-22.9 371.61-23.8 383.66-23.8 383.66-19Q384.31-21.55 386.16-22.93 388.01-24.3 390.36-24.3 392.71-24.3 394.19-22.98 395.66-21.65 395.66-19.23 395.66-16.8 394.56-15.5 393.46-14.2 391.19-14.2 388.91-14.2 387.84-15.7 386.76-17.2 387.56-19.85L387.56-19.85 389.36-19.85Q390.61-22.4 388.31-22.4ZM417.36-11.75L417.36-11.75 418.81-11.75 418.81-15.6Q418.81-20.35 418.28-21.98 417.75-23.6 416.25-23.6L416.25-23.6Q415.36-23.6 414.63-23.13 413.91-22.65 413.91-21.83 413.91-21 414.21-20.15L414.21-20.15 415.46-20.15Q415.86-19.1 415.86-17.63 415.86-16.15 414.61-15.08 413.36-14 411.46-14L411.46-14Q407.16-14 407.16-18.15L407.16-18.15Q407.16-24.3 417.61-24.3L417.61-24.3Q423.56-24.3 425.83-22.28 428.11-20.25 428.11-14.85L428.11-14.85 428.11-4.7Q428.11-2.1 429.56-2.1L429.56-2.1Q431.25-2.1 431.56-7.25L431.56-7.25 432.31-7.2Q432.11-2.8 430.66-1.15 429.21 0.5 425.91 0.5L425.91 0.5Q419.91 0.5 419-3.2L419-3.2Q418.36-1.3 417.06-0.4 415.75 0.5 413.25 0.5L413.25 0.5Q405.86 0.5 405.86-5.55L405.86-5.55Q405.86-9.1 408.68-10.43 411.5-11.75 417.36-11.75ZM415.36-5.6Q415.36-3 415.63-2.25 415.91-1.5 416.68-1.5 417.46-1.5 418.13-2.78 418.81-4.05 418.81-6.3L418.81-6.3 418.81-10.95 418.46-10.95Q415.36-10.95 415.36-6.4L415.36-6.4 415.36-5.6ZM432.9-22.9L432.9-23.8 444.95-23.8 444.95-19.2Q445.75-21.5 447.4-22.9 449.05-24.3 452.4-24.3L452.4-24.3Q460.15-24.3 460.15-15.95L460.15-15.95 460.15-0.9 462.95-0.9 462.95 0 448.8 0 448.8-0.9 450.85-0.9 450.85-17.15Q450.85-20.15 450.45-21.03 450.05-21.9 449-21.9L449-21.9Q447.4-21.9 446.18-19.8 444.95-17.7 444.95-14.7L444.95-14.7 444.95-0.9 447.1-0.9 447.1 0 432.9 0 432.9-0.9 435.65-0.9 435.65-22.9 432.9-22.9ZM462.9-22.9L460.85-22.9 460.85-23.8 475.35-23.8 475.35-22.9 472.65-22.9 478.1-6.3 483.9-22.9 480.55-22.9 480.55-23.8 487.6-23.8 487.6-22.9 485.1-22.9 475.75 4.05Q474.1 8.75 472.05 10.63 470 12.5 467.05 12.5 464.1 12.5 462.4 11.15 460.7 9.8 460.7 7.7 460.7 5.6 461.8 4.5 462.9 3.4 464.7 3.4L464.7 3.4Q468.85 3.4 468.85 6.85L468.85 6.85Q468.85 7.6 468.55 8.65L468.55 8.65 466.8 8.65Q466.4 9.8 466.7 10.55 467 11.3 468.05 11.3L468.05 11.3Q470.1 11.3 471.7 9.28 473.3 7.25 474.75 3.1L474.75 3.1 475.85 0 471.45 0 462.9-22.9ZM496.5-36.6L496.5-37.5 508.75-37.5 508.75-0.9 511.55-0.9 511.55 0 496.7 0 496.7-0.9 499.45-0.9 499.45-36.6 496.5-36.6ZM528.64-9.85L528.64-9.85 528.64-14.1Q528.64-18.95 528.12-21.18 527.59-23.4 525.69-23.4L525.69-23.4Q524.59-23.4 523.92-22.78 523.24-22.15 522.94-20.7L522.94-20.7Q522.49-18.45 522.49-13.85L522.49-13.85 522.49-9.95Q522.49-4.5 522.82-3.4 523.14-2.3 523.49-1.6L523.49-1.6Q524.04-0.4 525.64-0.4L525.64-0.4Q527.59-0.4 528.19-2.65L528.19-2.65Q528.64-4.25 528.64-9.85ZM525.54 0.5Q519.29 0.5 516.09-2.7 512.89-5.9 512.89-11.88 512.89-17.85 516.32-21.08 519.74-24.3 525.94-24.3 532.14-24.3 535.19-21.33 538.24-18.35 538.24-12.25L538.24-12.25Q538.24 0.5 525.54 0.5L525.54 0.5ZM553.64-23.4L553.64-23.4Q551.44-23.4 550.49-21 549.54-18.6 549.54-13.05L549.54-13.05 549.54-10.45Q549.54-5.5 550.64-3.35 551.74-1.2 554.69-1.2 557.64-1.2 559.39-3.2 561.14-5.2 561.64-7.75L561.64-7.75 562.54-7.65Q561.59-3.35 559.04-1.45L559.04-1.45Q556.44 0.5 551.89 0.5L551.89 0.5Q546.09 0.5 542.99-2.63 539.89-5.75 539.89-11.78 539.89-17.8 543.41-21.05 546.94-24.3 553.24-24.3L553.24-24.3Q557.69-24.3 560.04-22.58 562.39-20.85 562.39-18.25 562.39-15.65 561.26-14.45 560.14-13.25 558.16-13.25 556.19-13.25 554.99-14.3 553.79-15.35 553.79-17.4L553.79-17.4Q553.79-18.3 554.04-19.2L554.04-19.2 555.69-19.2Q556.04-20.2 556.04-21L556.04-21Q556.04-23.4 553.64-23.4ZM575.79-11.75L575.79-11.75 577.24-11.75 577.24-15.6Q577.24-20.35 576.71-21.98 576.19-23.6 574.69-23.6L574.69-23.6Q573.79-23.6 573.06-23.13 572.34-22.65 572.34-21.83 572.34-21 572.64-20.15L572.64-20.15 573.89-20.15Q574.29-19.1 574.29-17.63 574.29-16.15 573.04-15.08 571.79-14 569.89-14L569.89-14Q565.59-14 565.59-18.15L565.59-18.15Q565.59-24.3 576.04-24.3L576.04-24.3Q581.99-24.3 584.26-22.28 586.54-20.25 586.54-14.85L586.54-14.85 586.54-4.7Q586.54-2.1 587.99-2.1L587.99-2.1Q589.69-2.1 589.99-7.25L589.99-7.25 590.74-7.2Q590.54-2.8 589.09-1.15 587.64 0.5 584.34 0.5L584.34 0.5Q578.34 0.5 577.44-3.2L577.44-3.2Q576.79-1.3 575.49-0.4 574.19 0.5 571.69 0.5L571.69 0.5Q564.29 0.5 564.29-5.55L564.29-5.55Q564.29-9.1 567.11-10.43 569.94-11.75 575.79-11.75ZM573.79-5.6Q573.79-3 574.06-2.25 574.34-1.5 575.11-1.5 575.89-1.5 576.56-2.78 577.24-4.05 577.24-6.3L577.24-6.3 577.24-10.95 576.89-10.95Q573.79-10.95 573.79-6.4L573.79-6.4 573.79-5.6ZM592.98-7.15L592.98-7.15 592.98-22.9 590.23-22.9 590.23-23.8 592.98-23.8 592.98-30.25 602.28-32.55 602.28-23.8 608.78-23.8 608.78-22.9 602.28-22.9 602.28-6.05Q602.28-3.7 602.76-2.6 603.23-1.5 604.73-1.5 606.23-1.5 607.36-3 608.48-4.5 608.83-7.1L608.83-7.1 609.68-7Q609.28-3.55 607.48-1.53 605.68 0.5 601.53 0.5 597.38 0.5 595.18-1.15 592.98-2.8 592.98-7.15ZM617.53-27.25Q614.88-27.25 613.76-28.6 612.63-29.95 612.63-31.95 612.63-33.95 613.86-35.25 615.08-36.55 617.58-36.55 620.08-36.55 621.38-35.38 622.68-34.2 622.68-32.02 622.68-29.85 621.43-28.55 620.18-27.25 617.53-27.25ZM609.98-22.9L609.98-23.8 622.23-23.8 622.23-0.9 625.03-0.9 625.03 0 610.18 0 610.18-0.9 612.93-0.9 612.93-22.9 609.98-22.9ZM642.18-9.85L642.18-9.85 642.18-14.1Q642.18-18.95 641.65-21.18 641.13-23.4 639.23-23.4L639.23-23.4Q638.13-23.4 637.45-22.78 636.78-22.15 636.48-20.7L636.48-20.7Q636.03-18.45 636.03-13.85L636.03-13.85 636.03-9.95Q636.03-4.5 636.35-3.4 636.68-2.3 637.03-1.6L637.03-1.6Q637.58-0.4 639.18-0.4L639.18-0.4Q641.13-0.4 641.73-2.65L641.73-2.65Q642.18-4.25 642.18-9.85ZM639.08 0.5Q632.83 0.5 629.63-2.7 626.43-5.9 626.43-11.88 626.43-17.85 629.85-21.08 633.28-24.3 639.48-24.3 645.68-24.3 648.73-21.33 651.78-18.35 651.78-12.25L651.78-12.25Q651.78 0.5 639.08 0.5L639.08 0.5ZM653.28-22.9L653.28-23.8 665.33-23.8 665.33-19.2Q666.13-21.5 667.78-22.9 669.43-24.3 672.78-24.3L672.78-24.3Q680.53-24.3 680.53-15.95L680.53-15.95 680.53-0.9 683.33-0.9 683.33 0 669.18 0 669.18-0.9 671.23-0.9 671.23-17.15Q671.23-20.15 670.83-21.03 670.43-21.9 669.38-21.9L669.38-21.9Q667.78-21.9 666.55-19.8 665.33-17.7 665.33-14.7L665.33-14.7 665.33-0.9 667.48-0.9 667.48 0 653.28 0 653.28-0.9 656.03-0.9 656.03-22.9 653.28-22.9Z" opacity="1" transform="matrix(1,0,0,1,0,0)" fill="#000000" class="slogan-text-1" data-fill-palette-color="secondary" id="text-1"></path></svg></g></svg></g></svg></g></svg></g><g transform="matrix(1,0,0,1,154.2759152955805,0)"><svg viewBox="0 0 88.94576940883893 137.92876330390658" height="137.92876330390658" width="88.94576940883893"><g><svg xmlns="http://www.w3.org/2000/svg" xmlns:xlink="http://www.w3.org/1999/xlink" version="1.1" x="0" y="0" viewBox="14.396 1.999671168972031 62.4762600169841 96.88232883102798" enable-background="new 0 0 100 100" xml:space="preserve" height="137.92876330390658" width="88.94576940883893" class="icon-icon-0" data-fill-palette-color="accent" id="icon-0"><g fill="#412e27" data-fill-palette-color="accent"><path fill-rule="evenodd" clip-rule="evenodd" fill="#000000" d="M43.048 49.732S20.257 53.64 18.302 52.988C16.349 52.339 14.396 49.08 14.396 49.08S14.396 42.568 17.651 41.918C20.906 41.266 43.047 39.966 43.047 39.966S41.745 34.104 43.698 30.846C45.651 27.593 44.349 22.382 44.349 22.382S32.628 8.708 31.327 4.148C30.025-0.407 35.232 3.497 37.839 4.799 40.443 6.103 64.087 22.37 64.536 23.683 64.987 24.998 64.225 28.728 64.225 30.859 64.225 32.92 63.886 35.406 66.49 36.056S72.58 35.945 75.043 38.082C76.819 39.618 77.497 43.028 76.194 44.982 75.792 42.958 74.179 43.102 70.922 44.404 69.444 44.732 68.639 44.324 68.445 45.825 70.322 49.769 70.397 49.732 70.397 49.732S71.699 52.988 73.001 55.591C74.305 58.197 71.698 60.802 70.397 64.709S58.676 94.664 58.676 94.664 56.504 98.882 53.748 98.882C51.797 98.882 50.779 94.338 50.779 89.128 50.779 83.919 55.422 64.06 55.422 64.06S51.028 58.789 49.507 56.054C47.985 53.318 46.954 49.081 46.954 49.081z" data-fill-palette-color="accent"></path></g></svg></g></svg></g><g></g></svg></g><defs></defs></svg><rect width="357.57231770840986" height="247.2" fill="none" stroke="none" visibility="hidden"></rect></g></svg></g></svg>